<svg style="width: 70px;" viewBox="141.794 -9.521 346.645 221.513" preserveAspectRatio="xMinYMin" xmlns="http://www.w3.org/2000/svg">
                    <g transform="matrix(0.1, 0, 0, -0.1, 34.089233, 346.350281)" fill="#fff" stroke="none">
                        <path d="M2032 3552 c-10 -7 -12 -169 -10 -778 l3 -769 750 -3 c413 -1 760 0 773 3 l22 5 -2 773 -3 772 -760 2 c-418 2 -766 -1 -773 -5z m798 -477 l5 -370 100 0 100 0 2 65 c1 36 2 131 2 213 l1 147 215 0 215 0 0 -210 0 -209 -107 -3 -108 -3 -3 -209 c-2 -161 1 -211 10 -218 7 -4 57 -8 111 -8 l97 0 0 -80 0 -80 -105 0 -104 0 -3 83 -3 82 -214 0 -213 0 -2 -80 -1 -80 -262 -3 -263 -2 -2 262 -3 263 -87 3 -88 3 0 405 0 404 353 -2 352 -3 5 -370z m640 270 l0 -105 -105 0 -105 0 0 105 0 105 105 0 105 0 0 -105z"/>
                        <path d="M4166 2973 c-13 -70 -28 -175 -25 -177 3 -2 265 -40 343 -50 6 0 15 37 22 84 19 130 19 130 -16 130 -32 0 -33 -3 -44 -84 -3 -21 -7 -41 -10 -43 -3 -3 -21 -2 -41 1 l-36 7 3 62 c3 61 2 62 -24 65 -25 3 -27 0 -33 -45 -10 -72 -11 -75 -47 -71 l-33 3 0 70 c0 68 -1 70 -27 73 -22 3 -27 -1 -32 -25z"/>
                        <path d="M1235 2970 c-148 -22 -161 -33 -151 -124 3 -32 6 -70 6 -82 0 -17 6 -24 19 -24 47 0 52 8 45 75 l-7 64 34 5 c108 19 171 26 179 21 5 -3 12 -33 16 -66 7 -60 7 -60 38 -57 l31 3 -3 54 c-9 141 -33 156 -207 131z"/>
                        <path d="M1332 2561 c-155 -73 -160 -82 -120 -188 24 -65 66 -113 99 -113 29 0 218 86 247 113 31 29 28 70 -12 153 -49 103 -65 105 -214 35z m158 -78 c11 -25 19 -47 18 -48 -9 -8 -189 -95 -196 -95 -5 0 -18 22 -30 49 l-20 48 96 47 c53 25 99 46 104 46 4 0 16 -21 28 -47z"/>
                        <path d="M4072 2566 c-10 -22 -5 -33 45 -101 30 -42 53 -78 51 -80 -2 -2 -48 -7 -102 -11 -91 -7 -98 -9 -110 -33 l-14 -26 159 -82 159 -81 15 29 15 29 -90 45 c-49 25 -90 50 -90 55 0 6 27 10 60 10 49 0 61 3 70 20 8 16 4 28 -26 70 -20 28 -33 54 -30 57 4 4 50 -14 102 -40 l95 -47 14 32 14 33 -142 72 c-78 40 -151 72 -163 72 -13 1 -25 -8 -32 -23z"/>
                        <path d="M1587 2105 l-129 -124 63 -70 c65 -73 104 -97 138 -86 12 3 62 45 111 93 82 79 90 90 90 125 0 33 -9 46 -72 112 l-73 74 -128 -124z m173 -20 l34 -35 -79 -75 c-44 -41 -82 -75 -85 -75 -3 0 -21 15 -39 34 l-33 34 79 76 c43 41 80 76 84 76 3 0 20 -16 39 -35z"/>
                        <path d="M3640 1993 c-26 -9 -170 -107 -170 -116 0 -15 191 -287 201 -287 17 0 159 102 170 121 5 10 9 28 9 41 0 33 -136 227 -167 239 -13 5 -25 9 -26 8 -1 0 -9 -3 -17 -6z m73 -158 c31 -46 57 -88 57 -93 0 -5 -17 -20 -37 -34 l-38 -25 -62 88 c-35 48 -63 91 -63 96 0 10 61 52 75 52 6 0 36 -38 68 -84z"/>
                        <path d="M2022 1877 c-16 -29 -55 -98 -87 -155 -33 -59 -54 -107 -49 -112 5 -4 48 -29 95 -54 l86 -46 11 25 c7 14 12 28 12 30 0 3 -25 19 -55 36 -30 17 -55 36 -55 42 0 7 9 23 20 37 l20 25 51 -28 c28 -16 52 -27 54 -25 6 7 25 47 25 52 0 3 -22 17 -50 31 -27 14 -50 28 -50 31 0 10 31 64 37 64 3 0 31 -14 61 -31 30 -17 55 -29 57 -27 5 6 25 47 25 51 0 3 -40 28 -90 55 l-90 50 -28 -51z"/>
<path d="M3242 1781 c-12 -7 -1 -66 34 -183 10 -33 -16 -18 -109 60 -67 56 -98 77 -114 74 -13 -2 -23 -9 -23 -15 0 -17 86 -327 92 -333 3 -2 17 0 31 5 l26 10 -26 96 c-14 52 -23 98 -20 101 3 4 49 -30 101 -75 93 -80 109 -89 134 -72 13 8 6 39 -64 289 -15 52 -30 63 -62 43z"/>
                        <path d="M2662 1703 c-13 -12 -37 -71 -68 -168 -25 -82 -47 -154 -48 -160 0 -5 13 -11 31 -13 30 -3 33 0 44 38 l12 41 61 -3 61 -3 9 -42 c9 -41 12 -43 46 -43 l37 0 -28 176 c-16 97 -29 178 -31 179 -2 1 -26 5 -54 9 -41 5 -55 3 -72 -11z m72 -110 c12 -91 11 -95 -31 -87 -21 4 -40 8 -42 10 -1 1 5 27 14 56 9 29 18 59 20 65 9 27 33 -1 39 -44z"/>
                    </g>
                </svg>